<svg width="200" height="13" viewBox="0 0 200 13" fill="none" xmlns="http://www.w3.org/2000/svg">
<path d="M0.606178 8.57593C4.186 8.57593 7.80975 8.55996 11.4335 8.57593C17.2754 8.60787 23.0734 8.41623 28.8494 7.5858C32.1218 7.12267 35.5259 7.20252 38.8861 7.05879C41.5216 6.947 44.135 6.86715 46.7705 6.73939C47.649 6.69148 48.5275 6.6276 49.362 6.4679C55.6651 5.30209 62.0561 4.99866 68.513 5.62149C69.3695 5.70134 70.3797 5.87701 71.1045 5.65343C74.1792 4.74314 77.4296 4.90284 80.6141 4.61538C83.2056 4.37583 85.841 4.34389 88.4765 4.2321C91.7928 4.08837 95.131 4.00852 98.4473 3.83285C101.785 3.65718 105.168 3.0663 108.462 3.25793C112.876 3.52942 117.137 2.97048 121.486 2.81078C125.702 2.65108 129.941 2.23586 134.07 1.61303C136.969 1.18184 139.56 1.08602 142.064 2.61914C144.019 1.75676 146.149 1.53318 148.345 1.70885C148.631 1.72482 148.938 1.72482 149.224 1.67691C152.167 1.16587 155.088 0.415282 158.206 0.862441C160.578 0.0958825 162.774 0.574981 164.948 1.42139C167.452 0.559011 169.978 0.223641 172.657 0.76662C173.184 0.87841 173.799 0.70274 174.392 0.68677C177.555 0.60692 180.761 0.175731 183.704 1.56512C184.341 1.86855 185.307 1.77273 186.274 1.88452C186.01 1.18184 185.812 0.702741 185.615 0.175732C186.911 -0.255457 187.943 0.191701 188.909 0.60692C189.744 0.95826 189.502 2.2678 188.602 2.47541C187.767 2.66705 186.889 2.71496 186.032 2.84272C183.748 3.19405 181.354 3.33779 179.202 3.94464C176.764 4.63135 174.656 4.45568 172.503 3.60927C171.998 3.41763 171.471 3.24197 170.659 2.95451C169.055 3.43361 167.386 4.13628 165.607 4.43971C163.082 4.8709 160.424 5.38194 157.921 5.20627C152.891 4.83896 148.06 5.35 143.184 6.06865C142.196 6.21238 141.186 6.3082 140.197 6.37208C136.42 6.61163 132.62 6.83521 128.843 7.05879C123.616 7.36222 118.389 7.66565 113.184 7.98504C111.141 8.1128 109.121 8.30444 107.078 8.48011C104.926 8.67175 102.84 8.95921 100.578 8.73563C98.3155 8.51205 95.9216 8.92727 93.5937 9.10294C88.9377 9.45428 84.3037 9.90144 79.6697 10.1729C72.0928 10.6201 64.5158 10.9555 56.9389 11.3228C49.2083 11.6901 41.4996 12.1053 33.7689 12.3928C25.8845 12.6802 18.0002 12.9357 10.1158 12.9996C7.52425 13.0156 4.88881 12.5365 2.38513 12.0254C-0.250321 11.5304 -0.469964 10.8117 0.606178 8.57593Z" fill="white"/>
<path d="M200 1.29366C198.77 1.53321 197.562 1.83664 196.31 1.9644C195.959 1.99634 195.498 1.54918 195.08 1.3256C195.344 1.10202 195.542 0.750681 195.849 0.686801C197.233 0.463222 198.638 0.415313 200 1.29366Z" fill="white"/>
</svg>
