<svg width="690" height="26" viewBox="0 0 690 26" fill="none" xmlns="http://www.w3.org/2000/svg">
<path d="M108.856 0C114.376 1.11711 115.732 2.37837 115.344 3.66365C114.715 5.90989 118.927 7.23123 126.722 8.19219C131.758 8.81681 136.6 9.20119 142.313 9.2132C154.321 9.26125 166.135 8.86482 177.997 8.57653C193.733 8.19215 209.469 7.84384 225.205 7.47147C226.464 7.44744 227.868 7.50749 229.03 7.39938C235.518 6.82281 242.248 6.70268 249.027 6.60658C269.653 6.3183 290.23 6.10206 310.905 6.46242C326.399 6.72668 341.65 7.27925 356.854 7.98796C362.857 8.26424 368.91 8.52851 375.01 8.66064C386.679 8.90088 397.767 9.76575 409 10.4745C419.942 11.1591 430.933 11.7838 441.876 12.4564C460.323 13.5976 478.722 14.7988 497.266 15.8678C510.436 16.6366 523.751 17.2372 537.017 17.9099C537.356 17.9219 537.695 17.9218 537.985 17.9459C552.124 19.1591 566.988 19.5315 581.707 19.9039C597.104 20.2882 612.162 21.1411 627.753 21.3092C641.552 21.4534 655.206 22.1981 668.956 22.6906C670.215 22.7386 671.668 22.7747 672.636 22.9549C676.703 23.6636 680.867 23.6516 685.467 23.3273C688.711 23.099 690.841 23.8558 689.679 24.6726C688.711 25.3452 686.677 25.7536 683.966 25.8017C679.173 25.8978 674.137 26.1261 669.537 25.9098C660.774 25.5014 652.252 26.0419 643.585 25.9939C641.019 25.9819 638.453 26.0179 635.935 25.9459C623.153 25.5855 610.37 25.2011 597.588 24.8407C594.441 24.7446 591.245 24.6966 588.001 24.6245C587.372 24.3603 586.742 24.084 586.113 23.8077C585.532 23.7717 584.806 23.6636 584.322 23.7116C580.254 24.084 576.09 24.0239 571.927 23.8798C566.165 23.6756 560.451 23.4594 554.69 23.2792C550.235 23.135 545.732 23.051 541.229 22.9549C539.632 22.9188 537.84 23.0029 536.436 22.8468C528.834 22.042 520.652 22.09 512.663 21.8978C500.026 21.5975 488.066 20.6486 475.962 19.8077C466.327 19.1471 456.837 18.3663 447.202 17.7417C435.388 16.9609 423.622 16.1561 411.324 15.9038C408.806 15.8558 406.095 15.7116 403.867 15.4234C393.312 14.066 381.595 13.9339 370.265 13.3813C359.759 12.8768 349.107 12.997 338.503 12.8048C323.736 12.5405 309.065 12.036 294.346 11.6516C292.119 11.5916 289.843 11.5915 287.616 11.5795C279.578 11.5795 271.492 11.5795 263.455 11.5916C262.826 11.5916 262.148 11.5676 261.518 11.6156C248.542 12.5285 235.179 11.8918 222.058 12.2882C214.069 12.5285 205.934 12.6366 198.091 13.045C179.304 14.018 160.373 14.1141 141.345 14.042C132.726 14.0059 125.028 13.1411 117.668 12.1441C114.279 11.6877 111.858 10.8948 110.987 9.88583C110.115 8.86481 109.244 7.85583 108.275 6.84682C107.936 6.47445 107.307 6.12613 106.677 5.66967C100.189 6.00601 94.7181 6.71471 89.4405 7.41141C78.1107 8.92492 67.0714 10.5705 55.8868 12.1681C55.0637 12.2882 54.1922 12.4084 53.5143 12.5766C43.1529 14.8949 30.8547 16.5285 19.5249 18.4984C16.8619 18.9669 14.5378 19.4714 12.6495 20.1441C10.277 20.9849 7.5172 21.7657 3.30483 22.3423C2.48172 22.042 1.36809 21.8257 1.17442 21.5615C-1.53699 17.7897 -0.229714 16.9969 12.359 14.6906C16.765 13.8858 21.3648 13.1411 25.8192 12.3483C28.4338 11.8798 31.0484 11.3993 33.3724 10.8588C37.4395 9.92188 42.3782 9.33329 46.8326 8.57653C59.034 6.47444 72.8815 5.10508 84.7924 2.87085C91.7162 1.56154 100.093 0.61261 108.856 0Z" fill="#4D2CFF"/>
</svg>
