<svg width="760" height="421" viewBox="0 0 760 421" fill="none" xmlns="http://www.w3.org/2000/svg">
<path d="M462.646 419.905C460.736 418.152 459.463 418.977 457.651 418.977C459.512 420.833 460.785 419.871 462.646 419.905Z" fill="white"/>
<path d="M439.434 420.111C439.679 420.042 440.07 419.939 440.07 419.87C440.07 419.699 439.875 419.424 439.728 419.389C439.581 419.355 439.238 419.527 439.042 419.63C439.14 419.767 439.287 419.939 439.434 420.111Z" fill="white"/>
<path d="M469.11 418.324C469.306 417.774 469.551 417.224 469.747 416.708C469.698 416.708 469.6 416.674 469.551 416.674C469.404 417.189 469.306 417.705 469.159 418.255C469.061 418.255 469.11 418.324 469.11 418.324Z" fill="white"/>
<path d="M638.502 62.453C638.747 61.2499 638.649 60.0125 636.984 59.4281C631.254 57.4345 625.672 55.0283 618.963 55.097C618.571 56.4376 618.228 57.4688 617.934 58.5C614.016 57.8469 614.017 57.8469 612.254 54.0314C609.511 53.7564 607.209 54.5814 605.153 55.7158C602.802 57.022 600.451 56.8501 597.856 55.9908C589.433 53.1721 580.569 52.7596 571.46 53.8595C569.844 54.0658 568.228 54.2033 566.612 54.2377C556.867 54.3408 547.415 55.5095 538.307 58.0532C534.144 59.2219 529.688 59.875 524.644 60.9405C522.979 56.3689 522.342 51.7971 523.224 47.5004C524.301 42.2412 519.894 38.907 516.906 34.954C516.613 34.5759 515.976 34.1978 515.388 34.1291C509.414 33.4416 506.524 29.7293 502.166 27.4606C497.22 24.917 491.833 22.7858 488.111 19.2109C481.892 18.1454 476.456 14.8111 469.061 16.1516C467.102 13.6767 464.752 11.4425 460.246 11.4769C452.46 7.86762 442.96 7.73008 434.537 5.32392C426.505 3.05526 417.641 1.95533 408.974 1.06162C400.991 0.236647 392.813 0.442873 384.684 0.0991359C378.171 -0.175854 371.853 0.0647454 365.585 1.54281C363.92 1.92092 361.765 1.43971 359.904 1.13035C355.35 0.442873 350.747 0.511628 346.388 1.43972C338.357 3.19278 329.689 2.98652 322.001 5.63329C313.039 5.77078 304.714 7.55824 296.829 10.5144C287.672 10.48 280.865 15.4986 272.001 16.186C265.977 19.2109 258.24 20.5858 253.587 24.8482C250.845 27.3575 246.78 28.5262 243.304 29.6605C238.161 31.3448 233.95 33.6135 229.494 35.9165C219.161 41.3132 210.444 47.5005 205.547 56.0595C205.302 56.472 204.959 56.8845 204.567 57.2626C194.773 66.2685 193.01 76.7181 193.255 87.5802C193.304 90.7769 193.206 94.008 193.745 97.1704C194.871 103.804 198.054 110.061 202.315 116.007C203.637 117.829 204.665 119.754 206.232 121.473C206.673 121.988 208.534 122.126 209.66 121.988C210.248 121.919 210.933 121.026 211.129 120.407C212.011 117.898 208.583 116.179 208.436 114.013C208.289 112.054 210.199 110.129 208.387 108.067C207.212 106.726 206.722 105.111 205.792 103.633C199.034 93.1143 198.642 83.3866 203.49 72.4901C205.792 67.3341 210.052 63.1405 214.312 58.8781C215.978 57.2282 217.643 55.5439 219.454 53.7221C228.122 52.2784 234.244 47.8442 240.022 43.2381C243.108 40.7976 245.654 38.3226 250.551 37.7039C251.384 37.6008 252.069 36.9133 253 36.4321C252.804 35.5728 252.608 34.7135 252.51 33.8197C252.51 33.6479 252.804 33.4416 253 33.2353C255.448 32.8572 258.681 35.0228 260.395 32.1698C263.921 31.7573 267.446 31.4135 270.923 30.9323C273.078 30.6229 275.478 30.3823 277.241 29.5574C283.852 26.4294 290.904 24.6076 298.935 24.2294C304.42 23.9545 310.1 23.4045 315.193 22.0296C320.482 20.6202 326.016 20.6546 331.305 19.5547C332.774 19.2453 334.635 19.314 336.104 19.6577C339.973 20.5171 342.275 19.0734 344.478 17.0797C349.718 18.489 354.958 19.2109 360.443 17.6641C362.451 17.0798 364.948 16.9766 367.152 17.1141C373.665 17.4922 380.08 17.2173 386.496 16.6329C387.622 16.5298 388.944 16.9079 390.022 17.286C394.772 18.8328 399.669 19.7265 404.909 20.0015C410.394 20.3108 415.879 21.1015 421.363 21.2734C430.472 21.5827 439.238 23.3701 448.444 24.47C448.053 25.02 447.563 25.6388 447.122 26.2231C447.318 26.395 447.514 26.6356 447.759 26.7043C451.823 27.5637 455.839 28.9043 459.953 29.0762C464.801 29.2824 466.613 32.4104 470.775 33.3385C478.121 34.954 485.173 37.2915 491.882 40.0757C492.421 40.3164 493.351 40.2132 493.694 40.4882C498.444 44.2006 503.684 47.7067 507.651 51.7628C511.519 55.7158 511.275 60.4593 509.316 65.031C508.238 67.5059 506.035 69.1215 502.852 70.7026C486.985 78.5055 472.881 87.6145 463.332 99.7141C461.912 101.502 460.344 103.255 460.883 105.489C461.226 106.933 463.087 108.136 464.997 107.723C467.788 107.139 470.628 106.52 473.126 105.489C475.868 104.32 478.415 102.808 480.668 101.158C482.333 99.9203 484.096 99.5422 486.397 99.0953C491.294 98.1672 496.142 96.7923 498.983 93.2518C500.354 91.5331 502.754 90.0894 505.104 88.9207C509.022 86.9958 511.422 84.3834 513.282 81.3929C514.703 79.0899 516.368 76.89 517.886 74.6213C530.08 71.6652 541.882 68.5715 554.614 67.6778C557.651 67.4716 560.54 66.0966 563.674 65.2373C569.697 69.8777 577.582 68.4684 585.074 67.9184C588.209 67.6778 591.245 66.6466 594.379 65.9935C594.722 66.0622 595.016 66.131 595.309 66.1997C595.554 66.2685 595.75 66.3716 595.946 66.4403C595.358 66.2685 594.82 66.0966 594.232 65.9591C595.309 66.8185 596.387 67.6434 597.366 68.3996C608.238 69.0527 618.865 69.6715 630.03 70.3246C631.01 71.3558 632.234 72.6619 633.801 74.3119C644.281 74.14 652.802 78.918 662.645 81.1179C666.024 81.8741 669.207 83.146 672.635 83.7303C677.826 84.624 682.283 86.1364 686.2 88.7488C688.208 90.0894 689.971 91.9112 693.497 91.8769C694.378 91.8769 695.309 92.9424 696.19 93.5611C697.513 94.5236 698.541 95.8642 700.108 96.3798C702.361 97.1017 703.536 97.8235 704.075 99.6797C704.564 101.295 706.915 102.636 708.139 104.183C712.988 110.404 714.604 117.142 713.183 124.051C711.616 131.716 706.327 138.247 697.806 143.266C695.113 144.881 691.881 146.05 688.845 147.39C685.074 149.04 681.156 149.693 676.798 148.49C674.398 147.837 671.803 147.287 669.305 148.525C668.522 148.456 667.738 148.422 666.954 148.353C666.954 148.318 666.955 148.25 667.004 148.215C667.836 148.318 668.62 148.422 669.452 148.49C667.395 147.872 665.485 146.943 663.331 146.668C647.856 144.503 635.172 147.872 625.133 156.362C623.027 158.115 622.978 160.143 623.37 162.205C623.86 164.543 626.014 165.815 629.54 165.643C633.36 165.437 636.788 164.99 640.706 166.571C644.183 167.946 648.982 167.636 652.998 166.158C655.691 165.127 658.385 165.024 661.47 165.265C664.261 165.471 667.297 165.093 670.04 164.508C678.463 162.755 686.004 164.302 693.35 167.121C693.644 167.224 693.987 167.327 694.183 167.465C695.995 169.046 697.317 170.971 700.549 171.486C703.389 171.968 706.181 172.586 709.217 173.171C710.98 177.88 714.995 181.42 720.627 184.48C725.132 186.92 728.609 190.254 732.429 193.245C733.213 193.864 733.458 194.895 733.8 195.754C734.976 198.848 735.955 201.976 739.481 204.313C739.922 204.588 740.362 205.069 740.362 205.447C741.048 214.969 745.456 224.319 742.762 234.012C740.803 241.059 737.424 247.59 731.939 253.674C723.908 262.611 712.841 269.073 700.255 274.676C682.576 282.548 663.282 286.982 642.959 289.663C636.886 290.454 630.863 291.347 624.839 292.241C607.552 294.819 589.923 294.819 572.44 296.16C569.844 296.366 567.249 296.228 564.653 296.194C562.695 296.16 560.638 295.713 558.826 296.022C548.052 297.981 537.523 295.472 526.847 295.507C522.293 295.541 517.739 295.163 513.185 294.922C510.589 294.785 507.798 294.922 505.447 294.269C497.661 292.069 489.531 291.932 481.402 292.207C476.701 292.344 472.342 291.794 467.935 290.9C457.7 288.804 447.22 287.91 435.957 286.879C436.691 288.804 437.23 290.213 437.867 291.966C433.9 292.035 433.704 289.388 431.696 288.288C431.109 287.979 429.933 287.979 429.15 288.116C428.758 288.185 428.464 288.838 428.366 289.251C428.268 289.697 428.464 290.144 428.611 290.591C428.807 291.244 429.101 291.932 429.346 292.585L429.101 292.379C430.374 293.066 431.745 293.719 432.921 294.51C435.271 296.091 438.405 296.813 441.05 296.125C445.31 294.991 449.179 296.125 453.195 296.297C454.174 296.331 455.496 296.228 456.035 296.607C460.442 299.906 467.249 298.394 472.147 300.663C473.077 301.109 474.693 301.213 475.819 301.006C478.905 300.491 481.598 300.697 484.047 302.175C486.005 303.344 488.307 302.966 490.609 302.656C494.477 302.141 498.248 301.659 501.627 303.894C503.586 305.2 506.231 302.553 508.777 304.306C510.197 305.269 512.94 305.475 515.143 305.578C517.69 305.681 520.285 305.303 522.881 305.131C523.86 305.062 524.889 304.856 525.77 304.959C539.825 306.884 554.174 305.612 568.326 306.953C572.93 307.4 577.876 306.128 584.242 305.509C589.776 307.4 597.17 306.644 604.614 306.059C607.895 305.819 609.364 303.137 613.282 303.584C616.024 303.894 619.354 303.412 621.803 302.484C625.623 301.041 629.344 301.384 633.164 301.591C636.494 301.763 639.531 301.694 642.616 300.56C644.868 299.735 647.513 299.219 650.059 299.047C657.601 298.531 664.702 297.019 671.509 294.75C674.447 293.788 677.434 292.825 680.569 292.241C683.605 291.657 686.053 290.591 687.522 288.769C689.09 286.844 691.44 285.985 694.183 285.057C699.765 283.201 705.691 281.413 710.196 278.595C714.065 276.189 718.276 274.367 722.439 272.339C726.797 270.208 729.834 267.251 733.066 264.433C735.318 262.473 737.179 260.205 739.873 258.658C744.525 255.942 747.169 252.333 749.324 248.655C750.842 246.146 752.997 243.843 754.319 241.368C756.964 236.453 758.237 231.262 757.796 225.934C754.956 223.528 757.356 221.741 759.168 219.816C759.51 219.472 759.51 218.956 760 217.581C758.727 216.997 756.817 216.138 754.711 215.175C755.25 213.869 755.446 212.735 756.082 211.772C758.188 208.851 757.258 205.86 755.935 203.076C753.046 196.82 751.332 190.186 744.819 184.995C744.035 184.342 743.839 183.311 743.252 182.555C738.551 176.814 733.947 171.039 725.72 167.224C723.027 165.986 720.725 164.302 718.472 162.652C714.555 159.799 710.147 157.496 704.809 156.224C702.41 155.64 700.99 154.643 700.598 152.684C703.144 151.859 705.838 151.034 708.433 150.175C710.882 149.35 713.379 148.215 713.624 146.325C714.114 142.681 716.954 139.966 719.941 137.388C722.047 135.566 722.145 133.744 721.704 131.578C723.369 130.925 724.985 130.307 726.161 129.86C727.091 126.904 728.413 124.291 728.609 121.679C729.099 115.251 731.107 108.686 725.083 102.739C723.125 100.814 722.488 98.2016 721.068 95.6236C719.501 95.4517 717.64 95.2455 715.24 94.9705C714.212 93.2862 713.232 91.3613 711.861 89.5738C710.686 88.0614 709.07 86.6864 707.307 84.9677C712.939 86.2739 712.939 86.2739 717.444 92.3581C719.942 92.0143 719.305 90.5019 718.717 89.7457C717.15 87.5114 715.338 85.3458 713.183 83.3522C711.225 81.5304 708.776 79.9836 705.985 77.8868C703.291 77.8868 700.059 77.7836 696.827 77.9211C694.917 77.9899 693.693 77.5774 693.105 76.34C692.42 74.8963 694.085 74.3463 695.26 73.5901C695.456 73.4526 695.554 73.212 696.043 72.6276C692.811 70.4621 688.649 69.2934 684.437 68.3653C678.659 67.1278 672.341 66.8185 667.983 63.278C667.444 62.8655 666.122 62.6592 665.24 62.7624C659.511 63.278 654.369 62.178 649.227 60.4937C646.093 59.4625 644.281 60.3562 641.587 63.0717C642.763 63.0717 643.889 63.1061 645.064 63.1404C645.015 63.381 644.966 63.6217 644.917 63.8623C643.889 63.5873 642.861 63.278 641.832 63.003C640.657 62.7624 639.433 62.5561 638.257 62.3499C638.355 63.7592 638.012 64.6873 635.662 63.6904C635.123 63.4842 634.535 63.278 633.997 63.1061C632.724 62.6592 631.45 62.2467 629.1 61.4217C632.43 61.2155 633.213 62.1437 633.801 63.2092C635.417 62.8655 636.935 62.6592 638.502 62.453ZM326.114 12.5768C326.653 12.8174 328.22 12.233 327.436 13.4705C327.044 13.1611 326.653 12.8518 326.212 12.5768C325.624 12.5424 325.037 12.5424 324.449 12.5081C325.037 12.5424 325.575 12.5768 326.114 12.5768ZM341.54 6.97387C340.316 7.14574 339.14 7.38637 337.916 7.42075C337.524 7.42075 337.133 6.90513 336.741 6.59577C337.182 6.35515 337.769 5.87391 338.014 5.94266C339.189 6.25202 340.267 6.73329 341.295 7.18015C341.883 7.66138 342.52 8.10819 343.058 8.58942C343.156 8.69254 342.96 8.96751 342.911 9.17375C342.422 9.07063 341.589 9.03629 341.589 8.86442C341.442 8.28007 341.54 7.62697 341.54 6.97387ZM300.502 16.0142C301.53 16.9423 302.755 17.5609 302.951 18.2828C303.146 19.0046 302.51 20.2421 301.726 20.5515C300.404 21.0671 298.641 21.1358 297.123 21.0671C296.388 21.0327 295.311 20.4484 295.017 19.9671C294.723 19.4515 294.919 18.4547 295.458 18.1453C296.829 17.3547 298.592 16.8048 300.502 16.0142ZM517.249 304.237C516.515 303.928 515.976 303.722 515.486 303.516C516.123 303.137 516.71 302.622 517.445 302.416C517.788 302.313 518.473 302.759 519.012 302.931C518.375 303.378 517.788 303.825 517.249 304.237ZM273.225 25.1919C274.155 25.7763 275.184 26.12 275.331 26.5669C275.429 27.0481 274.694 27.6325 274.302 28.1481C273.666 27.8387 272.588 27.5981 272.441 27.1856C272.295 26.7044 272.882 26.0856 273.225 25.1919ZM636.249 69.9121C636.641 69.3621 636.886 68.709 637.131 68.709C637.964 68.7434 638.796 68.984 639.628 69.1215C639.286 69.6027 639.041 70.3933 638.6 70.462C637.866 70.5652 637.033 70.1184 636.249 69.9121ZM345.36 4.15525C346.535 3.91463 347.564 3.63962 348.641 3.5365C348.788 3.5365 349.375 4.29272 349.229 4.56771C348.837 5.4958 347.808 6.0114 346.437 5.63329C345.996 5.46142 345.898 4.91147 345.36 4.15525ZM718.766 166.605C717.395 166.708 716.465 166.983 715.73 166.811C715.044 166.64 714.653 166.021 714.114 165.608C714.897 165.471 715.779 165.093 716.416 165.23C717.15 165.368 717.738 165.952 718.766 166.605ZM393.401 4.22398C390.169 4.77396 389.189 4.98019 388.161 5.11768C387.965 5.15206 387.475 4.77396 387.524 4.73958C387.769 4.43022 388.063 3.94898 388.406 3.91461C389.238 3.84586 390.169 3.98336 393.401 4.22398ZM486.838 90.055C485.956 90.33 485.173 90.605 484.389 90.8112C484.291 90.8456 483.851 90.3644 483.9 90.33C484.438 89.8832 485.026 89.505 485.614 89.0926C485.956 89.3675 486.299 89.6425 486.838 90.055ZM550.55 300.663C550.207 300.972 549.864 301.247 549.472 301.556C549.325 301.384 548.983 301.213 548.983 301.075C549.081 300.697 549.325 300.353 549.521 300.009C549.913 300.25 550.256 300.456 550.55 300.663ZM333.46 16.7016C333.509 16.5298 333.46 16.2891 333.607 16.2204C333.803 16.1516 334.096 16.186 334.39 16.186C334.292 16.4267 334.243 16.7016 334.145 16.9422C333.9 16.8735 333.705 16.8048 333.46 16.7016ZM606.524 59.1875C606.769 58.8781 606.965 58.5688 607.307 58.2938C607.405 58.225 608.042 58.2938 608.042 58.3625C608.14 58.6719 608.091 59.0156 608.091 59.325C607.552 59.2906 607.063 59.2218 606.524 59.1875ZM743.252 197.954C743.35 197.782 743.546 197.438 743.595 197.438C744.084 197.542 744.574 197.679 745.064 197.817C744.966 197.988 744.819 198.263 744.77 198.263C744.231 198.195 743.742 198.057 743.252 197.954ZM582.626 61.2843L583.116 61.2499L582.92 61.6624L582.626 61.2843ZM570.726 61.2156L571.02 60.8031L571.265 61.2156H570.726ZM607.454 66.2685L607.356 65.8903L607.993 66.0279L607.454 66.2685ZM664.653 68.1934C664.8 68.0559 664.898 67.9184 665.045 67.7466C665.192 67.884 665.485 67.9871 665.485 68.1246C665.485 68.2621 665.289 68.3996 665.143 68.5715C664.996 68.434 664.8 68.2965 664.653 68.1934Z" fill="#F2F1F4"/>
<path d="M100.748 125.288C105.596 130.169 105.547 130.1 113.334 128.725C119.651 127.591 126.164 127.144 132.677 127.832C135.958 128.176 139.141 128.966 141.59 126.663C147.075 126.422 152.511 126.01 157.897 127.247C159.709 127.66 161.864 128.76 163.284 128.416C169.602 126.766 174.744 129.31 179.837 130.754C183.363 131.75 186.301 131.957 188.945 130.616C192.03 129.035 192.863 126.491 191.883 123.81C191.492 122.744 190.806 121.713 189.925 120.166C191.835 119.891 193.206 119.72 194.528 119.513C194.283 119.17 194.185 118.62 193.793 118.482C188.015 116.488 182.383 114.014 176.311 112.707C170.532 111.47 164.166 110.989 158.093 111.023C151.041 111.092 143.892 111.917 136.938 112.776C133.804 113.154 131.11 112.639 128.368 112.054C124.499 111.264 120.826 110.336 117.496 112.914C117.153 113.189 116.076 113.429 115.88 113.292C111.081 110.439 106.331 112.879 101.972 113.704C95.5569 114.942 88.652 115.938 83.9998 119.857C81.4532 118.482 78.8088 117.554 76.2623 119.41C74.8421 120.441 73.8627 121.404 71.4631 120.819C70.3367 120.544 68.7696 120.682 67.6432 121.06C61.8157 122.951 55.8902 124.841 50.3074 127.041C45.8021 128.829 41.6395 131.063 37.428 133.194C35.3222 134.225 33.4123 135.463 31.5024 136.631C29.7884 137.663 28.3193 139.141 26.3604 139.691C21.1694 141.134 17.8395 143.953 15.146 147.012C12.6485 149.796 7.65338 151.721 8.24103 155.743C8.28998 156.121 7.84924 156.671 7.40851 156.878C0.45459 160.212 0.993347 165.402 0.601562 170.352C0.405701 172.621 0.209839 174.924 0.013916 177.192C-0.0839844 178.43 0.307739 179.427 2.07068 179.977C2.60938 180.148 3.44189 180.595 3.39288 180.802C2.41345 184.101 5.35168 186.13 7.99615 188.295C8.5838 188.776 9.07361 189.567 9.07361 190.186C8.77979 195.995 15.3419 198.985 20.1411 202.32C23.3732 204.554 28.4662 205.551 32.8736 206.822C35.3712 207.544 37.3301 208.438 39.2889 209.779C43.0107 212.357 47.2223 214.453 53.0009 214.247C55.2046 214.178 57.4573 214.797 59.71 215.141C61.4729 215.416 61.5219 215.485 64.4113 218.819C62.5503 220.709 60.6404 222.806 58.4857 224.766C52.3152 230.472 51.3848 237.037 53.5885 243.602C54.9108 247.555 59.0734 250.821 64.1664 252.952C66.1252 253.777 69.1124 253.433 71.61 253.605C72.0507 254.705 72.4424 255.771 72.8832 256.836C78.9066 256.596 78.9066 256.596 82.4326 260.927C83.8038 261.064 85.371 261.373 86.938 261.408C94.3817 261.511 101.874 261.58 109.318 261.614C111.277 261.614 113.236 261.58 115.145 261.408C119.455 261.064 120.092 260.308 120.483 256.561C120.581 255.805 121.659 255.118 122.344 254.327C119.112 252.78 115.684 253.983 113.725 254.189C101.58 250.443 90.6108 247.28 78.5639 245.63C75.9684 243.74 72.9321 241.712 70.1898 239.512C67.7411 237.518 68.8186 234.012 63.8725 232.637C66.1252 231.881 68.3779 231.503 69.749 230.54C71.2182 229.475 71.8059 227.825 72.9812 226.484C73.6668 225.728 74.4993 224.972 75.4787 224.422C77.5355 223.253 81.2573 225.35 82.4816 223.253C83.6079 221.328 85.4688 221.156 87.7215 220.813C90.17 220.4 92.5207 219.816 95.459 219.163C94.9203 220.744 94.5776 221.775 94.2838 222.737C94.9694 223.012 95.5079 223.425 96.0466 223.459C98.9359 223.528 101.874 223.494 105.204 223.494C105.596 218.441 113.725 216.482 114.754 211.36C113.333 209.71 111.864 207.991 110.297 206.169C102.609 206.341 94.8223 206.548 87.0848 206.719C86.4482 206.719 85.6647 206.822 85.175 206.616C76.9478 203.179 66.3701 205.138 58.5347 200.807C57.3594 200.154 55.4495 200.12 53.8824 199.81C52.3153 199.466 50.6013 199.329 49.279 198.71C37.9666 193.382 26.1156 188.536 18.4761 180.183C14.3135 175.611 13.4321 170.833 16.1745 165.849C17.9374 162.687 19.8472 159.559 24.1567 157.427C26.997 156.053 27.7316 153.44 30.6699 151.721C36.7424 148.181 43.3535 145.534 50.3564 143.162C54.7148 141.684 58.8285 139.863 63.04 138.178C64.1174 137.766 65.3906 136.941 66.3701 137.078C70.1409 137.594 68.8187 134.947 70.5327 134.053C75.5767 135.016 80.3759 134.81 85.0771 132.61C87.7216 131.372 90.9536 130.478 94.0878 130.1C98.4462 129.55 100.013 127.625 100.993 125.116C100.307 125.151 99.6705 125.151 99.0828 125.185C99.5726 125.254 100.16 125.288 100.748 125.288ZM50.1115 203.248C50.0626 203.419 50.0136 203.591 50.0136 203.763C50.0626 203.901 50.2584 204.038 50.3564 204.176C50.2095 203.901 50.0626 203.591 49.9647 203.316C50.4544 203.419 50.895 203.488 52.3152 203.763C50.993 203.454 50.5522 203.351 50.1115 203.248ZM171.267 116.42C171.609 116.523 171.952 116.592 172.295 116.695C172.099 117.485 171.903 118.276 171.707 119.066C170.875 118.826 170.042 118.62 169.21 118.379C169.895 117.726 170.581 117.073 171.267 116.42ZM187.182 126.56C184.342 127.11 183.216 127.419 182.138 127.488C181.649 127.522 181.11 127.144 180.571 126.938C181.208 126.629 181.795 126.113 182.53 126.044C183.363 125.941 184.342 126.216 187.182 126.56ZM102.119 256.114C102.217 256.252 102.462 256.458 102.413 256.561C102.364 256.664 102.021 256.699 101.825 256.767C101.727 256.63 101.482 256.424 101.58 256.321C101.531 256.217 101.874 256.183 102.119 256.114ZM112.991 117.038C112.844 116.832 112.599 116.592 112.697 116.454C112.795 116.317 113.187 116.248 113.431 116.145C113.578 116.454 113.725 116.729 113.872 117.038C113.578 117.038 113.285 117.038 112.991 117.038ZM109.367 126.629C109.759 126.388 110.052 126.113 110.493 125.941C110.64 125.872 111.277 126.079 111.277 126.147C111.228 126.457 111.081 126.732 110.934 127.041C110.395 126.869 109.906 126.766 109.367 126.629ZM27.8785 148.662L28.5641 148.422L28.7111 148.765L27.8785 148.662ZM67.9371 215.691C68.0351 215.828 68.231 216.035 68.182 216.069C68.0351 216.206 67.7902 216.275 67.5453 216.344C67.3984 216.103 67.3005 215.897 67.1536 215.657C67.3984 215.691 67.6433 215.691 67.9371 215.691ZM119.21 116.66L119.308 117.073L118.671 116.935L119.21 116.66Z" fill="#F2F1F4"/>
<path d="M181.11 244.977C169.944 250.477 163.725 257.352 164.264 266.495C164.802 276.223 167.888 285.435 177.633 293.032C181.796 296.263 185.762 299.631 191.002 301.935C195.263 303.791 197.32 306.403 198.348 309.634C199.034 311.868 199.719 314.068 200.454 316.406C201.531 317.849 204.616 316.818 205.987 318.709C206.967 320.049 210.003 319.706 210.444 318.228C211.178 315.684 214.362 314.687 216.565 312.384C215.88 309.359 215.243 305.991 214.41 302.656C213.872 300.628 212.941 298.669 212.403 296.641C211.668 293.616 212.207 290.866 215.341 288.323C219.944 284.507 224.107 280.417 231.697 279.385C238.994 273.954 249.425 274.504 258.534 272.751C264.41 271.617 270.189 270.379 277.094 269.142C275.38 267.905 274.4 267.217 273.421 266.495C274.694 264.536 277.339 264.192 279.885 263.917C282.383 263.642 283.95 262.645 285.419 261.374C287.476 259.586 287.084 258.039 284.684 256.492C276.751 256.355 268.671 255.702 260.884 258.039C259.464 258.452 257.701 258.452 256.085 258.417C250.649 258.349 245.85 259.758 241.394 261.614C233.999 264.708 226.213 267.526 219.601 271.308C211.619 275.879 203.882 280.863 200.062 287.979C199.768 288.563 199.18 289.079 198.446 290.007C190.561 283.579 184.293 276.739 180.082 269.176C177.78 265.052 176.898 260.377 178.221 255.771C179.2 252.402 180.033 248.965 181.11 244.977ZM179.641 281.963C179.2 281.517 178.71 281.07 178.319 280.588C178.319 280.554 178.857 280.21 178.955 280.245C179.641 280.485 180.326 280.795 180.963 281.07C180.62 281.31 180.228 281.585 179.641 281.963ZM276.8 259.861C277.388 259.827 277.926 259.792 278.514 259.792C278.563 259.792 278.612 260.102 278.71 260.274C278.122 260.308 277.583 260.377 276.996 260.377C276.947 260.377 276.849 260.033 276.8 259.861Z" fill="#F2F1F4"/>
<path d="M407.357 286.638C410.785 286.604 414.36 286.088 417.69 287.875C417.201 289.216 416.76 290.488 416.172 292.207C419.551 293.169 422.979 294.2 427.044 295.335C427.828 294.2 428.513 293.272 429.15 292.31L429.395 292.516C427.681 291.966 425.918 291.45 423.616 290.728C423.91 289.182 424.204 287.497 424.546 285.71C418.719 283.544 412.695 283.579 406.672 284.026C405.595 284.094 404.615 284.988 403.587 285.504L403.391 285.194C404.86 285.71 406.28 286.225 407.749 286.741L407.357 286.638Z" fill="#F2F1F4"/>
<path d="M403.587 285.572C402.852 285.126 401.775 284.198 401.432 284.301C396.584 286.019 392.96 284.129 389.287 282.376C387.181 281.379 384.978 281.104 383.068 282.307C382.235 282.788 381.843 283.854 381.843 284.679C381.843 285.091 383.264 285.882 383.949 285.813C387.671 285.504 390.462 286.844 393.743 287.738C398.102 288.941 403.195 288.941 407.553 289.388C409.12 288.013 407.847 287.36 407.357 286.604L407.749 286.776C406.28 286.26 404.86 285.744 403.391 285.229C403.391 285.263 403.587 285.572 403.587 285.572Z" fill="#F2F1F4"/>
<path d="M360.737 281.791C362.745 283.097 364.654 282.96 366.711 281.757C364.752 280.451 362.892 280.348 360.737 281.791Z" fill="#F2F1F4"/>
<path d="M377.534 281.654C377.044 281.826 376.555 282.032 376.065 282.204C376.457 282.65 376.848 283.132 377.191 283.579C377.583 283.269 378.22 282.994 378.268 282.651C378.366 282.341 377.828 281.997 377.534 281.654Z" fill="#F2F1F4"/>
<path d="M300.502 16.0142C298.592 16.8048 296.829 17.3202 295.409 18.1451C294.87 18.4545 294.675 19.4513 294.968 19.9669C295.262 20.4826 296.34 21.0669 297.074 21.0669C298.641 21.1013 300.404 21.0325 301.678 20.5513C302.461 20.2419 303.049 19.0044 302.902 18.2826C302.755 17.5607 301.53 16.9423 300.502 16.0142Z" fill="white"/>
<path d="M517.249 304.237C517.788 303.825 518.375 303.378 518.963 302.931C518.424 302.725 517.788 302.313 517.396 302.416C516.661 302.622 516.074 303.138 515.437 303.516C515.976 303.722 516.466 303.928 517.249 304.237Z" fill="white"/>
<path d="M273.225 25.1919C272.833 26.0856 272.246 26.7044 272.441 27.1856C272.588 27.5981 273.617 27.8387 274.302 28.1481C274.694 27.6325 275.429 27.0481 275.331 26.5669C275.233 26.12 274.204 25.7763 273.225 25.1919Z" fill="white"/>
<path d="M636.249 69.9121C637.033 70.1184 637.866 70.5308 638.6 70.462C639.041 70.4277 639.286 69.6027 639.628 69.1215C638.796 68.9496 637.964 68.709 637.131 68.709C636.886 68.709 636.641 69.3621 636.249 69.9121Z" fill="white"/>
<path d="M345.36 4.15525C345.898 4.91147 346.045 5.49582 346.437 5.59894C347.857 5.97705 348.837 5.46145 349.228 4.53336C349.375 4.25838 348.739 3.50215 348.641 3.50215C347.563 3.63965 346.486 3.91463 345.36 4.15525Z" fill="white"/>
<path d="M718.766 166.605C717.738 165.952 717.15 165.368 716.416 165.23C715.73 165.093 714.897 165.471 714.114 165.608C714.653 166.021 715.093 166.674 715.73 166.811C716.465 166.983 717.395 166.708 718.766 166.605Z" fill="white"/>
<path d="M393.401 4.22398C390.12 3.98336 389.238 3.84561 388.357 3.87999C388.014 3.91436 387.72 4.3956 387.475 4.70496C387.426 4.73934 387.916 5.11744 388.112 5.08307C389.189 4.97994 390.169 4.80833 393.401 4.22398Z" fill="white"/>
<path d="M341.393 7.17985C340.267 6.76737 339.238 6.28609 338.063 5.97673C337.769 5.90798 337.231 6.38922 336.79 6.62984C337.182 6.90483 337.573 7.45477 337.965 7.45477C339.189 7.4204 340.365 7.17985 341.589 7.00798L341.393 7.17985Z" fill="white"/>
<path d="M633.801 63.1059C633.213 62.0403 632.479 61.1122 629.1 61.3185C631.499 62.1434 632.724 62.5903 633.997 63.0027L633.801 63.1059Z" fill="white"/>
<path d="M341.54 6.97387C341.54 7.62697 341.442 8.27999 341.589 8.89872C341.638 9.03622 342.47 9.10493 342.911 9.20805C342.96 9.00181 343.156 8.72684 343.058 8.62372C342.519 8.10811 341.883 7.66127 341.344 7.18004C341.393 7.18004 341.54 6.97387 341.54 6.97387Z" fill="white"/>
<path d="M486.838 90.055C486.299 89.6082 485.956 89.3675 485.614 89.0926C485.026 89.505 484.438 89.8832 483.9 90.33C483.851 90.3644 484.34 90.8456 484.389 90.8112C485.173 90.6394 485.956 90.3644 486.838 90.055Z" fill="white"/>
<path d="M550.55 300.663C550.207 300.456 549.913 300.25 549.57 300.009C549.374 300.353 549.129 300.697 549.031 301.075C548.982 301.212 549.325 301.384 549.521 301.556C549.864 301.247 550.207 300.972 550.55 300.663Z" fill="white"/>
<path d="M326.31 12.5424C326.702 12.8517 327.094 13.1611 327.485 13.4704C328.269 12.2674 326.702 12.8174 326.163 12.5768L326.31 12.5424Z" fill="white"/>
<path d="M333.46 16.7016C333.705 16.7704 333.9 16.8735 334.145 16.9422C334.243 16.7016 334.292 16.4267 334.39 16.186C334.145 16.186 333.803 16.1516 333.607 16.2204C333.46 16.2891 333.509 16.5298 333.46 16.7016Z" fill="white"/>
<path d="M606.524 59.1875C607.063 59.2218 607.601 59.2906 608.091 59.325C608.091 59.0156 608.091 58.6719 608.042 58.3625C608.042 58.2938 607.405 58.225 607.307 58.2938C606.965 58.5688 606.769 58.8781 606.524 59.1875Z" fill="white"/>
<path d="M641.832 62.934C642.861 63.209 643.889 63.5184 644.917 63.7934C644.966 63.5528 645.015 63.3121 645.064 63.0715C643.938 63.0371 642.763 63.0028 641.587 63.0028C641.587 63.0372 641.832 62.934 641.832 62.934Z" fill="white"/>
<path d="M633.997 63.0027C634.536 63.209 635.123 63.3809 635.662 63.5871C638.012 64.5839 638.355 63.6559 638.257 62.2466L638.502 62.453C636.935 62.6592 635.368 62.8653 633.801 63.1059L633.997 63.0027Z" fill="white"/>
<path d="M743.252 197.954C743.742 198.092 744.231 198.195 744.721 198.298C744.77 198.298 744.917 197.988 745.015 197.851C744.525 197.713 744.084 197.576 743.546 197.473C743.546 197.438 743.35 197.748 743.252 197.954Z" fill="white"/>
<path d="M582.626 61.2843L582.969 61.6281L583.164 61.2499L582.626 61.2843Z" fill="white"/>
<path d="M570.726 61.2156H571.265L571.02 60.8031L570.726 61.2156Z" fill="white"/>
<path d="M607.454 66.2685L607.993 66.0621L607.356 65.9246L607.454 66.2685Z" fill="white"/>
<path d="M594.281 65.9934C594.869 66.1653 595.407 66.3372 595.995 66.4747C595.799 66.3716 595.603 66.2684 595.358 66.234C595.065 66.1653 594.771 66.0966 594.428 66.0278C594.428 65.9935 594.281 65.9934 594.281 65.9934Z" fill="white"/>
<path d="M664.653 68.1934C664.8 68.3309 664.996 68.434 665.143 68.5715C665.289 68.434 665.485 68.2621 665.485 68.1246C665.485 67.9871 665.192 67.884 665.045 67.7466C664.898 67.884 664.8 68.0216 664.653 68.1934Z" fill="white"/>
<path d="M669.403 148.525C668.571 148.421 667.787 148.318 666.954 148.25C666.954 148.284 666.954 148.353 666.905 148.387C667.689 148.456 668.424 148.49 669.256 148.559C669.354 148.525 669.403 148.525 669.403 148.525Z" fill="white"/>
<path d="M326.114 12.5768C325.575 12.5424 325.037 12.5422 324.498 12.5078C325.086 12.5422 325.673 12.5421 326.261 12.5421C326.31 12.5421 326.114 12.5768 326.114 12.5768Z" fill="white"/>
<path d="M171.267 116.42C170.581 117.073 169.896 117.76 169.21 118.413C170.042 118.654 170.875 118.86 171.707 119.101C171.903 118.31 172.099 117.52 172.295 116.729C171.952 116.592 171.609 116.488 171.267 116.42Z" fill="white"/>
<path d="M187.182 126.56C184.342 126.216 183.362 125.975 182.481 126.044C181.795 126.113 181.208 126.628 180.522 126.938C181.061 127.144 181.599 127.522 182.089 127.488C183.265 127.385 184.342 127.11 187.182 126.56Z" fill="white"/>
<path d="M102.119 256.114C101.923 256.183 101.581 256.217 101.532 256.355C101.483 256.458 101.679 256.63 101.777 256.802C101.972 256.733 102.315 256.698 102.364 256.595C102.413 256.423 102.217 256.252 102.119 256.114Z" fill="white"/>
<path d="M112.991 117.038C113.285 117.038 113.578 117.038 113.872 117.038C113.725 116.729 113.578 116.454 113.431 116.145C113.187 116.248 112.795 116.317 112.697 116.454C112.648 116.592 112.893 116.832 112.991 117.038Z" fill="white"/>
<path d="M109.367 126.629C109.906 126.766 110.395 126.904 110.934 127.007C111.081 126.697 111.228 126.422 111.277 126.113C111.277 126.044 110.689 125.838 110.493 125.907C110.052 126.079 109.759 126.388 109.367 126.629Z" fill="white"/>
<path d="M27.8785 148.662L28.7111 148.765L28.5641 148.422L27.8785 148.662Z" fill="white"/>
<path d="M67.9371 215.691C67.6923 215.691 67.3986 215.691 67.1538 215.691C67.3007 215.931 67.3987 216.138 67.5456 216.378C67.7415 216.275 68.0353 216.241 68.1823 216.103C68.2312 216.035 67.9861 215.828 67.9371 215.691Z" fill="white"/>
<path d="M119.21 116.66L118.623 116.935L119.308 117.073L119.21 116.66Z" fill="white"/>
<path d="M100.748 125.288C100.16 125.288 99.5239 125.288 98.9362 125.288C99.5728 125.288 100.209 125.254 100.846 125.219C100.895 125.185 100.748 125.288 100.748 125.288Z" fill="white"/>
<path d="M50.1115 203.248C50.5522 203.351 50.9932 203.454 52.3644 203.763C50.9442 203.488 50.4545 203.385 50.0137 203.316C49.9647 203.282 50.1115 203.248 50.1115 203.248Z" fill="white"/>
<path d="M49.9648 203.282C50.1117 203.557 50.2585 203.866 50.3565 204.141C50.2585 204.004 50.0627 203.901 50.0137 203.729C49.9647 203.557 50.0626 203.385 50.1116 203.213C50.1116 203.248 49.9648 203.282 49.9648 203.282Z" fill="white"/>
<path d="M179.641 281.963C180.228 281.551 180.62 281.31 180.963 281.07C180.278 280.795 179.641 280.485 178.955 280.245C178.857 280.21 178.319 280.588 178.319 280.588C178.71 281.07 179.2 281.517 179.641 281.963Z" fill="white"/>
<path d="M276.8 259.861C276.849 260.033 276.898 260.377 276.996 260.377C277.583 260.377 278.122 260.342 278.71 260.274C278.661 260.102 278.612 259.792 278.514 259.792C277.926 259.792 277.388 259.827 276.8 259.861Z" fill="white"/>
<path d="M403.391 285.263C404.86 285.779 406.28 286.294 407.749 286.81C406.28 286.294 404.811 285.779 403.391 285.263Z" fill="white"/>
</svg>
