<svg width="400" height="48" viewBox="0 0 400 48" fill="none" xmlns="http://www.w3.org/2000/svg">
<path d="M400 2.71312C399.085 5.58005 397.171 7.31908 394.979 6.6611C390.624 5.34513 386.158 6.54353 381.859 5.76805C381.221 5.65055 380.333 5.86212 379.779 6.19111C377.116 7.78907 374.203 7.69503 371.263 7.20154C368.101 6.66105 365.077 6.68453 362.081 7.883C359.834 8.77598 357.421 8.70552 355.008 8.51753C352.983 8.35303 350.958 8.21206 348.933 8.07106C345.799 7.83607 342.72 8.09456 339.585 8.30606C334.703 8.65855 329.766 9.17554 324.856 8.30606C324.162 8.18856 323.358 8.30601 322.692 8.49401C320.556 9.08149 318.421 9.41048 316.146 8.96399C315.452 8.823 314.537 8.75255 313.982 9.01104C310.959 10.374 307.88 9.59846 304.773 9.52796C297.755 9.36346 290.737 9.43403 283.719 9.48103C282.443 9.48103 281.167 9.85695 279.891 9.99795C278.061 10.2094 276.23 10.3975 274.399 10.5385C272.041 10.75 269.656 10.9145 267.27 11.1025C266.549 11.173 265.8 11.3845 265.079 11.3375C257.257 10.9615 249.656 12.2304 241.973 13.1939C238.505 13.6169 235.01 13.8283 231.515 13.9693C225.052 14.2043 218.728 15.4498 212.348 16.1313C204.664 16.9303 196.925 17.8703 189.214 17.9408C182.667 18.0113 176.371 18.9043 170.046 19.8912C167.522 20.2907 165.081 21.0427 162.64 21.7241C161.087 22.1471 160.366 23.1811 160.144 24.5441C159.866 26.236 159.561 27.9516 158.979 29.573C158.119 31.9935 156.122 33.5679 153.153 34.1319C151.711 34.4139 150.269 34.6958 148.798 34.7898C143.639 35.1423 138.48 35.2833 133.653 37.1398C132.544 37.5628 131.129 37.4453 129.825 37.4923C126.108 37.6098 122.502 37.9388 119.035 39.2547C117.204 39.9362 115.124 40.1478 113.182 40.6178C109.132 41.6047 104.749 41.0642 100.783 42.6622C99.8674 43.0381 98.5915 42.8502 97.4819 42.8032C95.4293 42.6857 93.5153 43.1087 91.5181 43.5082C87.7734 44.2601 83.89 44.5187 80.062 44.9416C78.259 45.1296 76.4283 45.1531 74.5975 45.3646C73.1273 45.5291 71.6295 46.1636 70.2703 45.9756C67.5241 45.5761 65.416 46.2576 63.0859 47.4326C60.3121 48.8191 57.9265 47.55 57.5659 44.8711C57.3995 43.6491 57.5382 42.3802 57.3718 41.1582C56.9834 38.0563 57.3441 37.2103 60.645 36.0823C64.9167 34.6253 69.2717 33.2859 73.6544 32.1109C80.8664 30.2075 87.9953 28.1395 95.0964 25.9776C98.7302 24.8731 102.586 24.3562 106.386 23.6982C109.132 23.2282 111.656 22.4997 114.07 21.2072C115.734 20.3142 117.814 19.9617 119.701 19.3742C120.727 19.0452 121.781 18.7868 122.78 18.4108C123.029 18.3168 123.196 17.8702 123.196 17.6117C123.196 17.3532 122.946 16.9068 122.696 16.8598C121.476 16.5778 120.2 16.1313 118.979 16.2018C115.429 16.4133 111.989 16.1078 108.55 15.3793C106.58 14.9563 104.611 14.7213 102.558 15.4028C101.754 15.6848 100.727 15.6143 99.812 15.5438C95.7621 15.3088 91.74 15.0034 87.6902 14.7449C87.1354 14.6979 86.5529 14.6039 86.0259 14.7214C80.0343 15.8963 73.9318 15.0503 67.9402 15.5203C63.1692 15.8963 58.3981 16.0843 53.6271 16.5073C44.8062 17.3063 36.0407 18.2932 27.2476 19.1627C24.6956 19.4212 21.894 19.1157 19.5917 19.8912C13.8498 21.8182 7.60859 21.6537 1.86668 23.3926C1.58929 23.4866 1.17319 23.2516 0.840328 23.1811C-0.213742 20.6432 -0.241463 20.6432 0.562958 17.4942C3.3923 16.4838 6.52679 15.6143 9.74447 15.0268C13.5169 14.3218 17.2339 13.3819 21.0341 12.7474C27.5527 11.643 34.0713 10.5385 40.6453 9.6925C46.6646 8.91702 52.7394 7.97702 58.7864 8.02402C65.9985 8.09452 73.0996 6.40251 80.3117 7.15449C81.5599 7.27199 82.9469 7.17799 84.1119 6.802C87.8843 5.58003 91.74 5.88562 95.6234 6.07361C97.8148 6.19111 100.006 6.26161 102.197 6.4261C104.417 6.5671 106.636 6.61408 108.799 6.99007C113.848 7.85954 118.868 8.89354 123.889 9.83352C124.777 9.99802 125.72 9.99795 126.608 10.1154C128.411 10.3739 130.241 10.609 131.989 11.0085C135.373 11.7605 138.757 12.5829 142.113 13.4524C144.915 14.2044 147.661 13.4993 150.324 13.1468C157.619 12.2069 164.859 11.0555 172.099 9.95102C177.924 9.08154 183.694 7.93004 189.519 7.34256C197.369 6.54358 205.191 5.13354 213.208 5.74453C214.817 5.86202 216.509 5.58012 218.117 5.25113C223.915 4.05266 229.712 3.60608 235.704 4.33456C237.784 4.59306 240.17 4.12311 242.167 3.44163C245.717 2.21966 249.323 2.05516 253.04 2.14916C254.927 2.19616 256.674 2.36061 258.172 3.51208C259.836 4.80455 261.362 4.38158 263.11 3.30061C266.771 0.997666 267.52 1.16214 270.96 4.09957C272.985 4.40506 274.372 3.34761 275.925 2.47813C278.31 1.11516 278.338 1.16216 280.835 3.06562C281.916 3.91159 282.97 4.09964 284.302 3.23016C286.41 1.84369 288.712 0.950713 291.32 0.64522C291.791 0.598221 292.318 0.786171 293.456 0.950667C291.986 1.74965 290.987 2.29011 290.044 2.8071C290.71 4.07607 291.958 3.95864 292.984 3.93514C296.868 3.86464 300.695 4.31115 304.579 4.66365C307.852 4.94564 311.208 4.64008 314.509 4.35808C316.174 4.21709 317.699 3.41808 318.559 2.10212C319.475 0.69215 320.889 0.0811652 322.665 0.104665C327.602 0.175163 332.65 -0.576727 337.449 1.13873C338.254 1.42072 339.252 1.37363 340.14 1.39713C342.525 1.44413 344.911 1.44422 347.296 1.49122C347.657 1.49122 348.101 1.70272 348.378 1.60872C351.651 0.292752 355.202 1.09171 358.586 0.64522C360.556 0.386727 362.719 0.104688 364.633 0.480678C370.125 1.53815 375.645 1.30323 381.165 1.02123C383.163 0.927236 385.16 0.645152 386.935 1.98462C387.462 2.38411 388.655 2.21966 389.543 2.26666C393.065 2.45465 396.505 2.59563 400 2.71312ZM135.04 26.9175C135.096 26.8 135.234 26.659 135.207 26.565C135.179 26.471 134.957 26.4241 134.846 26.3771C134.763 26.5651 134.68 26.7766 134.596 26.9646C134.735 26.9411 134.901 26.941 135.04 26.9175Z" fill="white"/>
</svg>
