<svg width="640" height="32" viewBox="0 0 640 32" fill="none" xmlns="http://www.w3.org/2000/svg">
<path d="M640 8.44953C631.266 9.83808 621.833 10.1487 612.05 9.89287C607.928 9.78325 603.875 9.39959 599.822 9.18035C595.281 8.94283 590.599 8.48607 586.127 8.57742C578.511 8.72358 571.174 8.94282 565.724 7.15232C555.313 6.64075 544.971 5.7455 533.931 6.69556C533.652 7.31676 533.442 7.88314 533.093 8.66877C525.337 8.52261 519.537 9.69191 513.458 10.7881C502.069 12.8161 491.028 15.0999 476.285 15.8125C467.201 15.3192 460.214 13.9306 456.161 11.5007C454.904 10.7516 452.668 10.0756 450.362 9.49094C446.728 8.57742 442.326 8.26683 437.575 8.90629C431.286 9.765 424.578 10.2035 417.591 10.3862C410.883 10.5689 405.433 11.6286 400.332 12.6517C390.619 14.6066 379.998 16.0317 368.609 17.128C366.443 17.3289 364.137 17.4751 361.901 17.5664C348.835 18.0963 344.502 17.4751 339.332 14.2412C337.515 13.1267 336.397 11.9392 334.79 10.7881C331.226 8.24855 323.61 7.6091 315.155 9.2717C309.985 10.2948 305.722 11.6468 299.504 12.2315C284.9 13.6383 274.209 16.6164 260.933 18.553C252.967 19.7041 244.373 20.0695 235.918 20.6176C230.887 20.9465 223.9 20.2339 222.293 18.2424C220.755 16.3423 219.288 14.4422 217.541 12.5421C216.074 10.8795 211.602 10.1852 206.292 11.0987C191.059 13.7297 173.94 15.3009 157.449 17.201C141.588 19.0281 124.888 20.1243 107.629 20.4349C99.3142 20.581 92.1871 19.7041 86.8068 17.9684C85.4093 17.5116 84.0118 17.0366 82.3348 16.4885C73.5307 17.0549 67.2421 18.4982 60.9534 19.905C43.3451 23.8697 26.0163 27.9074 8.47788 31.9086C8.19838 31.9817 7.56958 31.9635 7.15034 32C-0.745436 30.0451 -2.00324 29.296 2.88795 27.4507C8.408 25.3679 14.1377 23.1572 21.6841 21.6225C40.7597 17.7674 58.7174 13.62 76.3955 9.36305C77.0244 9.21689 78.0725 9.16206 79.6796 8.97936C81.0771 9.27168 82.9637 9.56401 84.5009 9.96596C87.3658 10.7516 90.0909 11.592 92.816 12.4325C98.4758 14.1681 105.184 14.899 113.918 14.2047C116.503 14.0037 119.368 13.8941 122.093 13.9124C127.683 13.9489 133.343 14.1864 137.116 12.7065C153.327 11.9574 165.764 8.74185 182.045 8.04757C183.792 7.97449 185.679 7.75526 187.146 7.46293C196.579 5.65417 207.829 5.50799 218.869 4.94161C224.948 6.34843 228.302 7.99277 228.931 10.039C229.21 10.8795 229.35 11.7565 230.049 12.5786C232.005 14.6797 240.6 15.575 247.377 14.4057C250.731 13.8393 253.177 12.743 258.278 13.2729C258.487 13.2912 259.605 12.9806 259.815 12.7796C261.981 11.0805 267.222 10.4045 273.091 9.83808C278.332 9.34478 283.363 8.70531 288.463 8.13893C289.302 8.04757 290.35 7.95622 290.839 7.79178C300.691 4.61274 315.155 3.48 328.571 1.87221C329.759 1.72604 331.017 1.56161 331.995 1.43371C338.843 2.03664 341.498 3.37037 342.616 5.0147C343.245 5.96476 343.175 7.02444 344.852 7.8466C351.56 11.1718 357.779 11.6103 370.915 9.94769C385.938 8.04758 401.031 6.20228 415.704 4.08292C422.971 3.04151 431.216 2.47512 439.182 1.81739C442.186 1.5616 445.61 1.57988 448.894 1.61642C455.323 1.67123 460.493 2.36551 463.847 3.88195C466.642 5.1426 469.437 6.40324 472.582 7.60908C474.049 8.19373 476.355 8.63222 478.381 9.16206C487.814 7.82832 496.898 6.64076 505.632 5.30702C515.275 3.84539 524.638 2.27415 536.237 2.00009C538.403 1.94528 540.639 1.59815 542.386 1.25101C549.793 -0.228887 558.038 -0.247158 566.283 0.428845C578.72 1.43371 591.437 2.07318 604.294 2.60302C611.142 2.89535 617.64 3.64443 624.418 4.08292C633.292 4.63103 637.974 6.07439 640 8.44953ZM302.788 8.06584C302.229 7.99276 301.67 7.91968 301.111 7.86487C301.25 7.95622 301.32 8.10238 301.67 8.15719C301.879 8.17546 302.438 8.10238 302.788 8.06584ZM327.663 3.3521L326.964 3.2242L326.824 3.42519L327.663 3.3521Z" fill="#4D2CFF"/>
</svg>
