<svg width="20" height="16" viewBox="0 0 20 16" fill="none" xmlns="http://www.w3.org/2000/svg">
<path d="M0.0014098 10.1848C-0.0256628 9.71566 0.342519 9.44524 0.645732 9.64943C0.943531 9.84259 1.23591 10.0799 1.45249 10.3614C1.78819 10.7918 2.06434 11.272 2.35672 11.73C2.43253 11.8514 2.48127 11.9949 2.55707 12.1219C3.04979 12.9718 3.30968 13.027 4.0623 12.3813C4.4738 12.028 4.83657 11.6141 5.22642 11.2389C5.54046 10.9353 5.84909 10.6263 6.17938 10.3448C7.39223 9.30175 8.6105 8.26973 9.83418 7.24323C9.96954 7.12733 10.1374 7.04455 10.2836 6.93969C10.8034 6.54786 11.3232 6.15602 11.843 5.76418C12.0162 5.63173 12.1678 5.46065 12.3627 5.36683C13.1154 4.98051 13.7001 4.38998 14.312 3.8105C14.6477 3.49041 15.0754 3.26414 15.4599 2.99924C15.7577 2.79504 16.1042 2.635 16.337 2.3701C17.0084 1.62506 17.826 1.09524 18.6544 0.581988C18.9631 0.388829 19.2554 0.173605 19.5749 0.0135593C19.6669 -0.0305913 19.851 0.0411427 19.9539 0.112888C20.0081 0.151519 20.0135 0.32813 19.9756 0.410913C19.8835 0.60959 19.759 0.791709 19.6453 0.973831C19.472 1.24977 19.2987 1.53123 19.1147 1.79613C18.9522 2.03344 18.7898 2.28179 18.584 2.47495C17.7881 3.21999 16.9434 3.90984 16.3262 4.83149C16.1692 5.0688 15.9201 5.24541 15.6981 5.43305C15.0646 5.97389 14.4365 6.53129 13.7705 7.02799C12.8988 7.67921 12.2328 8.57878 11.2528 9.08651C11.1607 9.13618 11.0904 9.23001 11.0037 9.29623C9.09781 10.9243 7.22438 12.5854 5.52422 14.4343C5.28056 14.6992 5.09106 15.0193 4.8799 15.3173C4.27888 16.1672 3.34216 16.25 2.7249 15.4166C2.29715 14.8427 1.80987 14.2908 1.60953 13.5457C1.51207 13.1705 1.25215 12.8283 1.01933 12.5027C0.629483 11.9618 0.364188 11.3603 0.142193 10.7366C0.0718038 10.5324 0.0338969 10.3117 0.0014098 10.1848Z" fill="white"/>
</svg>
